# AST/ASF file generated using VICON BodyLanguage
# -----------------------------------------------
:version 1.10
:name VICON
:units
  mass 1.0
  length 0.45
  angle deg
:documentation
   .ast/.asf automatically generated from VICON data using
   VICON BodyBuilder and BodyLanguage model FoxedUp or BRILLIANT.MOD
:root
   order TX TY TZ RX RY RZ
   axis XYZ
   position 0 0 0  
   orientation 0 0 0 
:bonedata
  begin
     id 1 
     name lhipjoint
     direction 0.528046 -0.759594 0.379717 
     length 2.39752 
     axis 0 0 0  XYZ
  end
  begin
     id 2 
     name lfemur
     direction 0.34202 -0.939693 0  
     length 7.31175  
     axis 0 0 20  XYZ
    dof rx ry rz
    limits (-160.0 20.0)
           (-70.0 70.0)
           (-60.0 70.0)
  end
  begin
     id 3 
     name ltibia
     direction 0.34202 -0.939693 0   
     length 7.52482   
     axis 0 0 20   XYZ
    dof rx
    limits (-10.0 170.0)
  end
  begin
     id 4 
     name lfoot
     direction 0.0675379 -0.185559 0.980309   
     length 2.00961   
     axis -90 7.62852e-016 20   XYZ
    dof rx rz
    limits (-45.0 90.0)
           (-70.0 20.0)
  end
  begin
     id 5 
     name ltoes
     direction 1.5352e-011 -4.22286e-011 1   
     length 1.01383   
     axis -90 7.62852e-016 20   XYZ
    dof rx
    limits (-90.0 20.0)
  end
  begin
     id 6 
     name rhipjoint
     direction -0.510274 -0.769251 0.384544   
     length 2.36742  
     axis 0 0 0  XYZ 
  end
  begin
     id 7 
     name rfemur
     direction -0.34202 -0.939693 0   
     length 7.45325   
     axis 0 0 -20   XYZ
    dof rx ry rz
    limits (-160.0 20.0)
           (-70.0 70.0)
           (-70.0 60.0)
  end
  begin
     id 8 
     name rtibia
     direction -0.34202 -0.939693 0   
     length 7.49587   
     axis 0 0 -20   XYZ
    dof rx
    limits (-10.0 170.0)
 end
 begin
     id 9 
     name rfoot
     direction -0.106475 -0.292536 0.950308   
     length 2.20898  
     axis -90 -7.62852e-016 -20   XYZ
    dof rx rz
    limits (-45.0 90.0)
           (-20.0 70.0)
  end
  begin
     id 10 
     name rtoes
     direction -1.53597e-011 -4.22023e-011 1   
     length 1.10065   
     axis -90 -7.62852e-016 -20   XYZ
    dof rx
    limits (-90.0 20.0)
  end
  begin
     id 11 
     name lowerback
     direction 0.0260024 0.998026 -0.0571652   
     length 2.11214   
     axis 0 0 0   XYZ
    dof rx ry rz
    limits (-20.0 45.0)
           (-30.0 30.0)
           (-30.0 30.0)
  end
  begin
     id 12 
     name upperback
     direction 0.0216202 0.999542 -0.0211766   
     length 2.11689   
     axis 0 0 0   XYZ
    dof rx ry rz
    limits (-20.0 45.0)
           (-30.0 30.0)
           (-30.0 30.0)
  end
  begin
     id 13 
     name thorax
     direction 0.00883312 0.999944 0.00589057   
     length 2.11821   
     axis 0 0 0   XYZ
    dof rx ry rz
    limits (-20.0 45.0)
           (-30.0 30.0)
           (-30.0 30.0)
  end
  begin
     id 14 
     name lowerneck
     direction -0.059386 0.994433 0.0870401   
     length 1.81176   
     axis 0 0 0   XYZ
    dof rx ry rz
    limits (-20.0 45.0)
           (-30.0 30.0)
           (-30.0 30.0)
  end
  begin
     id 15 
     name upperneck
     direction 0.0506457 0.97328 -0.223967   
     length 1.82382   
     axis 0 0 0   XYZ
    dof rx ry rz
    limits (-20.0 45.0)
           (-30.0 30.0)
           (-30.0 30.0)
  end
  begin
     id 16
     name head
     direction 0.0205902 0.996147 -0.0852487  
     length 1.84805  
     axis 0 0 0   XYZ
    dof rx ry rz
    limits (-20.0 45.0)
           (-30.0 30.0)
           (-30.0 30.0)
  end
  begin
     id 17 
     name lclavicle
     direction 0.949493 0.303881 -0.0782325  
     length 3.60584  
     axis 0 0 0   XYZ
    dof ry rz
    limits (-20.0 10.0)
           (0.0 20.0)
  end
  begin
     id 18 
     name lhumerus
     direction 1 -4.48965e-011 1.48782e-027   
     length 4.95681   
     axis 180 -30 -90   XYZ
    dof rx ry rz
    limits (-60.0 90.0)
           (-90.0 90.0)
           (-90.0 90.0)
  end
  begin
     id 19
     name lradius
     direction 1 -4.48952e-011 2.06528e-027   
     length 3.40915   
     axis 180 -30 -90   XYZ
    dof rx
    limits (-10.0 170.0)
  end
  begin
     id 20
     name lwrist
     direction 1 -4.48964e-011 1.28021e-027   
     length 1.70457   
     axis -1.61767e-015 90 90   XYZ
    dof ry
    limits (-180.0 0.0)
 end
  begin
     id 21 
     name lhand
     direction 1 -4.49094e-011 2.54887e-027   
     length 0.616403   
     axis -1.63363e-015 90 90   XYZ
    dof rx rz
    limits (-90.0 90.0)
           (-45.0 45.0)
  end
  begin
     id 22 
     name lfingers
     direction 1 -4.49002e-011 5.11407e-027   
     length 0.49696   
     axis -3.26723e-015 90 90   XYZ
    dof rx
    limits (0.0 90.0)
  end
  begin
     id 23
     name lthumb
     direction 0.707107 -6.34998e-011 0.707107   
     length 0.713539   
     axis -90 45 -2.25915e-014   XYZ
    dof rx rz
    limits (-45.0 45.0)
           (-45.0 45.0)
  end
  begin
     id 24 
     name rclavicle
     direction -0.937751 0.334612 -0.0930482   
     length 3.46287  
     axis 0 0 0   XYZ 
    dof ry rz
    limits (-10.0 20.0)
           (-20.0 0.0)
  end
  begin
     id 25 
     name rhumerus
     direction -1 -4.48962e-011 3.59972e-027  
     length 5.352   
     axis 180 30 90   XYZ
    dof rx ry rz
    limits (-90.0 60.0)
           (-90.0 90.0)
           (-90.0 90.0)
  end
  begin
     id 26 
     name rradius
     direction -1 -4.48987e-011 -3.76925e-027   
     length 3.43721   
     axis 180 30 90   XYZ
    dof rx
    limits (-10.0 170.0)
  end
  begin
     id 27 
     name rwrist
     direction -1 -4.48943e-011 1.28112e-027   
     length 1.7186   
     axis -1.61767e-015 -90 -90   XYZ
    dof ry
    limits (-180.0 0.0)
  end
  begin
     id 28
     name rhand
     direction -1 -4.49027e-011 2.55483e-027   
     length 0.72009   
     axis -1.63363e-015 -90 -90   XYZ
    dof rx rz
    limits (-90.0 90.0)
           (-45.0 45.0)
  end
  begin
     id 29
     name rfingers
     direction -1 -4.48827e-011 5.14506e-027   
     length 0.580555   
     axis -3.26723e-015 -90 -90   XYZ
    dof rx
    limits (0.0 90.0)
  end
  begin
     id 30
     name rthumb
     direction -0.707107 -6.34936e-011 0.707107   
     length 0.833564   
     axis -90 -45 2.25915e-014   XYZ
    dof rx rz
    limits (-45.0 45.0)
           (-45.0 45.0)
  end
:hierarchy
  begin
    root lhipjoint rhipjoint lowerback
    lhipjoint lfemur
    lfemur ltibia
    ltibia lfoot
    lfoot ltoes
    rhipjoint rfemur
    rfemur rtibia
    rtibia rfoot
    rfoot rtoes
    lowerback upperback
    upperback thorax
    thorax lowerneck lclavicle rclavicle
    lowerneck upperneck
    upperneck head
    lclavicle lhumerus
    lhumerus lradius
    lradius lwrist
    lwrist lhand lthumb
    lhand lfingers
    rclavicle rhumerus
    rhumerus rradius
    rradius rwrist
    rwrist rhand rthumb
    rhand rfingers
  end

#!OML:ASF H:\Terrain\Patient Classification 1\Terrain2\Thursday\justin.ASF
:FULLY-SPECIFIED
:DEGREES
472
root -2.35184 23.4627 0.839825 -5.52205 -7.28944 -6.74376
lowerback 7.02349 0.755165 6.96959
upperback 4.53669 1.3779 4.00228
thorax 0.840123 0.774599 0.150418
lowerneck -10.6579 0.0389041 -7.9296
upperneck 41.1735 1.55463 1.87064
head 16.5848 -0.342702 2.52034
rclavicle 1.15295e-014 4.05521e-014
rhumerus -31.422 -4.91109 -81.2901
rradius 30.4957
rwrist -13.2681
rhand -20.8037 11.1917
rfingers 7.12502
rthumb 5.5639 -18.7153
lclavicle 1.15295e-014 4.05521e-014
lhumerus -36.6955 13.4528 78.3242
lradius 21.2773
lwrist -6.92864
lhand -13.4018 20.5596
lfingers 7.12502
lthumb 12.7059 50.153
rfemur 10.4168 0.781523 31.8179
rtibia 21.0303
rfoot -21.4015 2.58521
rtoes 8.88936
lfemur -37.8605 7.3907 -10.195
ltibia 51.7671
lfoot 11.4044 -7.79477
ltoes -3.62853
473
root -2.35095 23.4291 0.909509 -5.71486 -7.54296 -6.61921
lowerback 7.17426 0.750408 6.69365
upperback 4.56814 1.36855 4.03332
thorax 0.779318 0.762716 0.333282
lowerneck -10.5889 0.0895543 -8.12326
upperneck 41.1313 1.60194 2.04701
head 16.5358 -0.328922 2.63871
rclavicle -1.81888e-014 -3.10104e-014
rhumerus -31.5966 -3.86523 -81.6292
rradius 31.2133
rwrist -13.861
rhand -21.6139 10.9071
rfingers 7.12502
rthumb 4.7816 -19.0189
lclavicle -1.81888e-014 -3.10104e-014
lhumerus -37.0432 13.6575 78.1338
lradius 21.2426
lwrist -6.78822
lhand -13.5015 20.8565
lfingers 7.12502
lthumb 12.6097 50.4559
rfemur 10.4548 1.0015 31.7611
rtibia 21.8281
rfoot -21.6982 2.28355
rtoes 8.61791
lfemur -37.3202 7.33353 -10.1823
ltibia 49.8679
lfoot 12.4555 -7.93455
ltoes -6.65668
474
root -2.34682 23.3888 0.982431 -5.89096 -7.72208 -6.60112
lowerback 7.28629 0.732896 6.61562
upperback 4.55767 1.35233 4.07734
thorax 0.70219 0.750331 0.420752
lowerneck -10.266 0.176717 -8.24763
upperneck 40.9707 1.69721 2.12131
head 16.3577 -0.291248 2.6989
rclavicle 1.60519e-014 8.74653e-015
rhumerus -31.666 -3.57149 -81.5702
rradius 31.6858
rwrist -13.7503
rhand -21.5873 10.8785
rfingers 7.12502
rthumb 4.80727 -19.047
lclavicle 1.60519e-014 8.74653e-015
lhumerus -37.4043 13.9683 77.8883
lradius 21.1092
lwrist -6.86892
lhand -14.0379 21.0328
lfingers 7.12502
lthumb 12.0925 50.6634
rfemur 10.4698 0.967829 31.7376
rtibia 22.7231
rfoot -22.1733 2.07767
rtoes 8.22403
lfemur -36.7173 7.03059 -9.96937
ltibia 47.9697
lfoot 13.2669 -7.78212
ltoes -8.62263
475
root -2.34583 23.3535 1.05967 -5.95469 -7.88544 -6.62136
lowerback 7.19629 0.74437 6.65395
upperback 4.56068 1.36036 4.05275
thorax 0.757305 0.756676 0.375301
lowerneck -10.0932 0.262899 -7.97726
upperneck 40.8986 1.84115 1.84836
head 16.2726 -0.223124 2.54683
rclavicle -1.09332e-014 -2.8625e-014
rhumerus -31.5688 -3.6567 -81.5486
rradius 31.8849
rwrist -13.4433
rhand -21.9288 11.4118
rfingers 7.12502
rthumb 4.4775 -18.5209
lclavicle -1.09332e-014 -2.8625e-014
lhumerus -37.746 14.0153 77.6222
lradius 21.234
lwrist -6.98144
lhand -14.2613 20.9767
lfingers 7.12502
lthumb 11.8772 50.6199
rfemur 10.3919 0.938185 31.759
rtibia 23.7022
rfoot -22.6722 1.83979
rtoes 7.18034
lfemur -36.1707 6.6051 -9.68485
ltibia 46.0743
lfoot 13.911 -7.79653
ltoes -10.9494
476
root -2.34619 23.3265 1.13497 -6.18243 -8.10789 -6.3814
lowerback 7.25478 0.765374 6.3515
upperback 4.6502 1.36982 3.98976
thorax 0.810506 0.758479 0.477299
lowerneck -10.2926 0.333333 -7.78377
upperneck 41.1207 2.0046 1.63988
head 16.4382 -0.164395 2.45423
rclavicle -1.05356e-014 -2.70347e-014
rhumerus -31.6258 -3.27648 -81.7426
rradius 32.4319
rwrist -13.9705
rhand -22.6041 11.9968
rfingers 7.12502
rthumb 3.82546 -17.9486
lclavicle -1.05356e-014 -2.70347e-014
lhumerus -37.986 13.8497 77.5177
lradius 21.3864
lwrist -6.73567
lhand -14.12 20.9679
lfingers 7.12502
lthumb 12.0134 50.6031
rfemur 10.3819 1.21091 31.5417
rtibia 24.7487
rfoot -23.3688 1.78545
rtoes 6.54721
lfemur -35.3931 5.9609 -9.54499
ltibia 44.224
lfoot 15.1988 -6.67269
ltoes -7.98578
477
root -2.34306 23.2984 1.21491 -6.38624 -8.33679 -6.05817
lowerback 7.28119 0.776592 6.01377
upperback 4.6879 1.36502 3.89507
thorax 0.826547 0.751189 0.566773
lowerneck -10.3944 0.449792 -7.76719
upperneck 41.2628 2.15953 1.71681
head 16.5275 -0.0945886 2.51518
rclavicle 1.79403e-014 3.97569e-014
rhumerus -31.8269 -2.64718 -82.0043
rradius 33.0864
rwrist -14.7849
rhand -23.1505 12.3547
rfingers 7.12502
rthumb 3.29779 -17.5995
lclavicle 1.79403e-014 3.97569e-014
lhumerus -38.2791 13.5133 77.4934
lradius 21.4996
lwrist -6.14971
lhand -13.6464 21.3092
lfingers 7.12502
lthumb 12.47 50.9171
rfemur 10.2794 1.34202 31.1333
rtibia 25.9154
rfoot -24.1812 2.02721
rtoes 6.0213
lfemur -34.6133 5.43348 -9.55832
ltibia 42.4933
lfoot 16.1937 -5.43304
ltoes -5.45445
478
root -2.33573 23.2552 1.2995 -6.39456 -8.58439 -6.13623
lowerback 7.10518 0.768449 6.17213
upperback 4.69397 1.34605 3.86577
thorax 0.935302 0.747629 0.453238
lowerneck -10.3785 0.547856 -7.76082
upperneck 41.1828 2.26759 1.79858
head 16.4683 -0.0356597 2.56442
rclavicle -1.51573e-014 -1.27222e-014
rhumerus -31.8054 -2.26649 -82.134
rradius 33.4413
rwrist -15.0374
rhand -22.8679 12.0453
rfingers 7.12502
rthumb 3.57064 -17.9045
lclavicle -1.51573e-014 -1.27222e-014
lhumerus -38.6406 13.1797 77.4428
lradius 21.7954
lwrist -5.59051
lhand -13.352 21.6109
lfingers 7.12502
lthumb 12.7539 51.2013
rfemur 10.079 1.01675 31.0803
rtibia 27.188
rfoot -24.7985 1.77719
rtoes 3.37543
lfemur -34.0364 5.18263 -9.26119
ltibia 40.9431
lfoot 16.5014 -5.31627
ltoes -6.85013
479
root -2.32561 23.1981 1.37941 -6.49785 -8.81051 -6.3881
lowerback 7.05283 0.744825 6.54161
upperback 4.77851 1.32291 3.88895
thorax 1.06277 0.74737 0.276555
lowerneck -10.4233 0.583132 -7.8344
upperneck 41.1328 2.32275 1.84921
head 16.4461 -0.0167731 2.60769
rclavicle 2.14687e-014 1.74931e-014
rhumerus -31.6667 -2.24763 -81.993
rradius 33.7175
rwrist -14.2534
rhand -21.8169 11.2037
rfingers 7.12502
rthumb 4.5856 -18.7266
lclavicle 2.14687e-014 1.74931e-014
lhumerus -38.8648 12.8653 77.4685
lradius 22.1035
lwrist -5.16713
lhand -13.4943 21.7473
lfingers 7.12502
lthumb 12.6167 51.3463
rfemur 9.92042 0.69461 31.233
rtibia 28.5596
rfoot -25.2369 1.53235
rtoes 2.06024
lfemur -33.4505 5.02072 -8.79666
ltibia 39.5806
lfoot 16.9657 -5.23328
ltoes -7.54333
480
root -2.31706 23.1408 1.46224 -6.7687 -8.92869 -6.3486
lowerback 7.0711 0.713154 6.56842
upperback 4.90703 1.27437 3.85805
thorax 1.18632 0.728689 0.234449
lowerneck -10.5727 0.594201 -7.86798
upperneck 41.2453 2.38035 1.81595
head 16.5426 -0.00945351 2.61376
rclavicle -4.96962e-016 -4.21423e-014
rhumerus -31.677 -2.07442 -81.9994
rradius 34.0858
rwrist -14.2375
rhand -21.84 11.6798
rfingers 7.12502
rthumb 4.56327 -18.251
lclavicle -4.96962e-016 -4.21423e-014
lhumerus -38.9748 12.7416 77.421
lradius 22.1339
lwrist -5.01163
lhand -13.6531 21.7693
lfingers 7.12502
lthumb 12.4635 51.3777
rfemur 9.81775 0.457936 31.0726
rtibia 30.0464
rfoot -25.6795 1.59022
rtoes 2.09266
lfemur -32.75 4.80871 -8.67525
ltibia 38.3421
lfoot 17.2471 -5.30245
ltoes -8.87727
481
root -2.31213 23.09 1.54682 -6.95595 -9.01995 -6.26596
lowerback 7.04521 0.679092 6.39313
upperback 4.97697 1.21192 3.88646
thorax 1.26515 0.695532 0.36599
lowerneck -10.6778 0.653914 -7.73278
upperneck 41.3396 2.56652 1.51904
head 16.6203 0.0427585 2.49089
rclavicle 5.56597e-015 7.95139e-015
rhumerus -31.7155 -1.3158 -82.3264
rradius 34.5953
rwrist -15.7321
rhand -22.8738 11.9983
rfingers 7.12502
rthumb 3.56499 -17.9517
lclavicle 5.56597e-015 7.95139e-015
lhumerus -39.1251 12.8337 77.3443
lradius 22.0831
lwrist -4.95392
lhand -13.5773 21.5635
lfingers 7.12502
lthumb 12.5367 51.1674
rfemur 9.62124 0.264183 30.8992
rtibia 31.6072
rfoot -26.2186 1.48212
rtoes 1.16498
lfemur -32.1157 4.45132 -8.55937
ltibia 37.1806
lfoot 17.4502 -4.66125
ltoes -7.39307
482
root -2.3056 23.0412 1.62893 -6.94157 -9.22791 -6.3306
lowerback 6.97511 0.659075 6.36805
upperback 4.95045 1.1783 3.97853
thorax 1.27244 0.676219 0.477742
lowerneck -10.6748 0.774682 -7.68765
upperneck 41.3683 2.81484 1.32851
head 16.6269 0.12482 2.4376
rclavicle -4.94974e-014 -3.4191e-014
rhumerus -31.6787 -0.67278 -82.4357
rradius 35.0081
rwrist -16.3239
rhand -22.8775 11.2288
rfingers 7.12502
rthumb 3.56141 -18.7212
lclavicle -4.94974e-014 -3.4191e-014
lhumerus -39.3309 13.0331 77.2566
lradius 22.0852
lwrist -4.94113
lhand -13.4358 21.4182
lfingers 7.12502
lthumb 12.6731 51.0137
rfemur 9.17493 0.229771 30.8735
rtibia 33.2025
rfoot -26.7761 1.51807
rtoes 0.447837
lfemur -31.701 4.1711 -8.2723
ltibia 36.1537
lfoot 17.8824 -3.24409
ltoes -4.21388
483
root -2.2979 22.9957 1.71721 -6.96618 -9.49025 -6.22749
lowerback 6.78821 0.642214 6.26211
upperback 4.97716 1.13039 3.96656
thorax 1.39936 0.652782 0.530075
lowerneck -10.7634 0.907394 -7.72471
upperneck 41.4162 3.04222 1.31664
head 16.6608 0.207313 2.47763
rclavicle 2.44505e-014 3.4191e-014
rhumerus -31.532 -0.48675 -82.3228
rradius 35.066
rwrist -15.6692
rhand -22.2933 11.0456
rfingers 7.12502
rthumb 4.12551 -18.8942
lclavicle 2.44505e-014 3.4191e-014
lhumerus -39.5308 13.2903 77.0712
lradius 22.0844
lwrist -5.02875
lhand -13.4352 21.2215
lfingers 7.12502
lthumb 12.6737 50.8169
rfemur 8.69177 0.156852 30.5814
rtibia 34.8636
rfoot -27.2329 1.81135
rtoes -0.252144
lfemur -31.2008 4.12612 -8.26989
ltibia 35.246
lfoot 18.0627 -3.28556
ltoes -6.90795
484
root -2.29042 22.9529 1.80917 -7.13118 -9.62966 -6.10909
lowerback 6.66632 0.586516 6.10122
upperback 5.03663 1.03263 3.95321
thorax 1.52147 0.603251 0.613227
lowerneck -10.8358 1.03753 -7.62235
upperneck 41.4747 3.29922 1.1224
head 16.7044 0.298377 2.41606
rclavicle -6.16232e-015 -4.21423e-014
rhumerus -31.4564 -0.310388 -82.2777
rradius 35.1617
rwrist -15.4749
rhand -22.2597 11.2506
rfingers 7.12502
rthumb 4.15797 -18.6885
lclavicle -6.16232e-015 -4.21423e-014
lhumerus -39.7631 13.4851 76.9543
lradius 22.146
lwrist -4.95895
lhand -13.3937 21.3077
lfingers 7.12502
lthumb 12.7137 50.9006
rfemur 8.25713 -0.0210052 30.2483
rtibia 36.5863
rfoot -27.4934 2.40352
rtoes 0.25391
lfemur -30.4916 4.13115 -8.33306
ltibia 34.3873
lfoot 18.1853 -3.56218
ltoes -7.71595
485
root -2.28107 22.8975 1.89841 -7.22912 -9.73414 -6.31594
lowerback 6.64186 0.533349 6.25324
upperback 5.02821 0.966347 4.05206
thorax 1.52647 0.572092 0.634925
lowerneck -10.8476 1.12648 -7.65673
upperneck 41.6332 3.44594 1.13604
head 16.7855 0.347488 2.45608
rclavicle -1.93815e-015 -2.38542e-015
rhumerus -31.5055 -0.117048 -82.2425
rradius 35.3912
rwrist -15.881
rhand -22.4829 11.6437
rfingers 7.12502
rthumb 3.9425 -18.2996
lclavicle -1.93815e-015 -2.38542e-015
lhumerus -40.004 13.442 76.9822
lradius 22.2904
lwrist -4.659
lhand -13.4467 21.666
lfingers 7.12502
lthumb 12.6626 51.2621
rfemur 7.74808 -0.173289 30.3185
rtibia 38.3065
rfoot -27.7484 2.75491
rtoes 0.323005
lfemur -29.9832 4.16604 -8.06041
ltibia 33.5703
lfoot 18.7744 -3.03209
ltoes -4.83677
